#N canvas 1124 142 743 665 12;
#X declare -path Abstractions;
#X obj 359 106 declare -path Abstractions;
#X obj 91 414 tri~;
#X obj 202 587 dac~;
#X floatatom 323 161 5 0 0 0 - - - 0;
#X obj 365 203 osc~ 1;
#X obj 108 298 adsr, f 17;
#X msg 107 180 1;
#X obj 200 479 *~;
#X msg 33 179 1;
#X msg 67 180 0;
#X obj 36 361 mtof;
#X obj 9 47 notein;
#X msg 234 259 131;
#X obj 201 203 loadbang;
#X obj 197 91 / 127;
#X obj 50 105 trigger b;
#X obj 360 257 dac~;
#X obj 261 121 print;
#X obj 74 151 del 500;
#X msg 196 253 200;
#X msg 275 263 500;
#X msg 161 249 300;
#X obj 209 533 *~ 0.5;
#X obj 337 504 env~;
#X obj 347 367 bng 19 250 50 0 empty empty empty 0 -10 0 12 #fcfcfc #000000 #000000;
#X obj 331 536 / 100;
#X obj 331 564 s AmpRead;
#X connect 1 0 7 0;
#X connect 3 0 4 0;
#X connect 5 0 7 1;
#X connect 6 0 5 1;
#X connect 7 0 22 0;
#X connect 7 0 23 0;
#X connect 8 0 5 0;
#X connect 9 0 5 0;
#X connect 10 0 1 0;
#X connect 11 0 15 0;
#X connect 11 0 10 0;
#X connect 11 0 17 0;
#X connect 11 0 24 0;
#X connect 11 1 14 0;
#X connect 12 0 5 4;
#X connect 13 0 21 0;
#X connect 13 0 19 0;
#X connect 13 0 12 0;
#X connect 13 0 20 0;
#X connect 14 0 5 1;
#X connect 15 0 8 0;
#X connect 15 0 18 0;
#X connect 18 0 9 0;
#X connect 19 0 5 3;
#X connect 20 0 5 5;
#X connect 21 0 5 2;
#X connect 22 0 2 0;
#X connect 22 0 2 1;
#X connect 23 0 25 0;
#X connect 24 0 23 0;
#X connect 25 0 26 0;
