#N canvas 152 172 601 662 12;
#X declare -path Abstractions;
#X obj 359 106 declare -path Abstractions;
#X obj 202 587 dac~;
#X obj 108 298 adsr, f 17;
#X msg 107 180 1;
#X obj 200 479 *~;
#X msg 33 179 1;
#X msg 67 180 0;
#X obj 36 361 mtof;
#X obj 9 47 notein;
#X obj 201 203 loadbang;
#X obj 197 91 / 127;
#X obj 50 105 trigger b;
#X obj 337 504 env~;
#X obj 331 536 / 100;
#X obj 331 564 s AmpRead;
#X obj 91 414 saw~;
#X obj 74 151 del 1200;
#X msg 161 249 500;
#X msg 234 259 300;
#X msg 196 253 300;
#X obj 209 533 *~ 0.15;
#X msg 275 263 1500;
#X connect 2 0 4 1;
#X connect 3 0 2 1;
#X connect 4 0 12 0;
#X connect 4 0 20 0;
#X connect 5 0 2 0;
#X connect 6 0 2 0;
#X connect 7 0 15 0;
#X connect 8 0 11 0;
#X connect 8 0 7 0;
#X connect 8 1 10 0;
#X connect 9 0 17 0;
#X connect 9 0 19 0;
#X connect 9 0 18 0;
#X connect 9 0 21 0;
#X connect 10 0 2 1;
#X connect 11 0 5 0;
#X connect 11 0 16 0;
#X connect 12 0 13 0;
#X connect 13 0 14 0;
#X connect 15 0 4 0;
#X connect 16 0 6 0;
#X connect 17 0 2 2;
#X connect 18 0 2 4;
#X connect 19 0 2 3;
#X connect 20 0 1 0;
#X connect 20 0 1 1;
#X connect 21 0 2 5;
