#N canvas 853 236 620 677 12;
#X declare -path Abstractions;
#X obj 359 106 declare -path Abstractions;
#X obj 202 587 dac~;
#X floatatom 323 161 5 0 0 0 - - - 0;
#X obj 365 203 osc~ 1;
#X msg 107 180 1;
#X obj 200 479 *~;
#X msg 33 179 1;
#X msg 67 180 0;
#X obj 36 361 mtof;
#X obj 9 47 notein;
#X obj 201 203 loadbang;
#X obj 197 91 / 127;
#X obj 50 105 trigger b;
#X obj 360 257 dac~;
#X obj 261 121 print;
#X obj 209 533 *~ 0.3;
#X obj 74 151 del 500;
#X obj 108 298 adsr, f 17;
#X msg 275 263 50;
#X obj 91 414 squ~;
#X msg 161 249 50;
#X msg 234 259 0;
#X msg 196 253 100;
#X connect 2 0 3 0;
#X connect 4 0 17 1;
#X connect 5 0 15 0;
#X connect 6 0 17 0;
#X connect 7 0 17 0;
#X connect 8 0 19 0;
#X connect 9 0 12 0;
#X connect 9 0 8 0;
#X connect 9 0 14 0;
#X connect 9 1 11 0;
#X connect 10 0 20 0;
#X connect 10 0 22 0;
#X connect 10 0 21 0;
#X connect 10 0 18 0;
#X connect 11 0 17 1;
#X connect 12 0 6 0;
#X connect 12 0 16 0;
#X connect 15 0 1 0;
#X connect 15 0 1 1;
#X connect 16 0 7 0;
#X connect 17 0 5 1;
#X connect 18 0 17 5;
#X connect 19 0 5 0;
#X connect 20 0 17 2;
#X connect 21 0 17 4;
#X connect 22 0 17 3;
